<svg xmlns="http://www.w3.org/2000/svg" viewBox="0 0 120 120" fill="none">
  <!-- Background circle -->
  <circle cx="60" cy="60" r="58" fill="white" stroke="#e2e8f0" stroke-width="1"/>
  
  <!-- Sparkles -->
  <path d="M72 22 L74 28 L80 26 L74 30 L76 36 L72 32 L68 36 L70 30 L64 28 L70 28Z" fill="#f59e0b"/>
  <path d="M82 32 L83 35 L86 34 L83 37 L84 40 L82 38 L80 40 L81 37 L78 34 L81 35Z" fill="#fbbf24" opacity="0.7"/>
  
  <!-- Antenna -->
  <line x1="60" y1="38" x2="60" y2="28" stroke="#0d9488" stroke-width="2.5" stroke-linecap="round"/>
  <circle cx="60" cy="26" r="3" fill="#f59e0b"/>
  
  <!-- Head / Body -->
  <rect x="32" y="38" width="56" height="50" rx="16" fill="#0d9488"/>
  
  <!-- Ears / Headphones -->
  <rect x="22" y="50" width="12" height="20" rx="6" fill="#0f766e"/>
  <rect x="86" y="50" width="12" height="20" rx="6" fill="#0f766e"/>
  
  <!-- Eyes -->
  <circle cx="48" cy="60" r="8" fill="white"/>
  <circle cx="72" cy="60" r="8" fill="white"/>
  <circle cx="49" cy="60" r="4.5" fill="#1e293b"/>
  <circle cx="73" cy="60" r="4.5" fill="#1e293b"/>
  <circle cx="50.5" cy="58.5" r="1.5" fill="white"/>
  <circle cx="74.5" cy="58.5" r="1.5" fill="white"/>
  
  <!-- Smile -->
  <path d="M52 72 Q60 79 68 72" stroke="white" stroke-width="2.5" stroke-linecap="round" fill="none"/>
  
  <!-- Legs -->
  <rect x="44" y="88" width="8" height="10" rx="4" fill="#0d9488"/>
  <rect x="68" y="88" width="8" height="10" rx="4" fill="#0d9488"/>
</svg>
